<?xml version="1.0" standalone="no"?>
<!DOCTYPE svg PUBLIC "-//W3C//DTD SVG 20010904//EN"
 "http://www.w3.org/TR/2001/REC-SVG-20010904/DTD/svg10.dtd">
<svg version="1.0" xmlns="http://www.w3.org/2000/svg"
 width="927.000000pt" height="927.000000pt" viewBox="0 0 927.000000 927.000000"
 preserveAspectRatio="xMidYMid meet">
<metadata>
Created by potrace 1.11, written by Peter Selinger 2001-2013
</metadata>
<g transform="translate(0.000000,927.000000) scale(0.100000,-0.100000)"
fill="#000000" stroke="none">
<path d="M3633 9255 c-17 -8 -55 -41 -84 -75 -30 -33 -58 -60 -63 -60 -5 0
-24 -11 -42 -25 -18 -14 -39 -25 -48 -25 -25 0 -46 -12 -46 -26 0 -16 -31 -34
-60 -34 -35 0 -67 -28 -75 -66 -4 -26 -24 -53 -72 -100 -36 -35 -70 -64 -75
-64 -5 0 -7 -3 -5 -8 3 -4 -12 -20 -34 -36 -21 -17 -39 -34 -39 -39 0 -5 -8
-19 -19 -33 -10 -13 -29 -56 -42 -96 -12 -40 -35 -93 -49 -118 -14 -25 -32
-61 -40 -80 -7 -19 -24 -53 -36 -75 -30 -53 -48 -129 -73 -300 -38 -263 -41
-320 -25 -517 8 -101 17 -221 21 -268 3 -47 9 -89 13 -95 14 -17 19 -74 25
-275 4 -131 3 -203 -5 -220 -10 -24 -10 -24 -6 -2 3 15 0 22 -7 19 -7 -2 -11
-11 -9 -20 1 -9 -4 -27 -13 -40 -8 -14 -16 -41 -17 -61 -1 -20 -5 -39 -10 -42
-4 -3 -8 -9 -8 -14 0 -12 62 -10 78 3 9 7 18 4 32 -11 16 -17 18 -26 10 -47
-5 -14 -6 -25 -1 -25 5 0 7 -26 4 -57 -3 -39 0 -69 10 -93 l15 -35 12 48 c7
26 16 50 21 53 13 8 30 -44 23 -72 -5 -19 -2 -24 12 -24 16 0 17 -2 4 -11 -13
-8 -12 -12 8 -26 12 -8 22 -24 22 -35 0 -11 4 -27 9 -36 5 -9 11 -30 14 -47 3
-16 14 -55 25 -85 51 -142 60 -225 31 -282 l-20 -38 26 -10 c15 -6 25 -17 25
-30 0 -11 6 -23 14 -26 21 -8 48 -71 41 -94 -4 -11 -2 -20 4 -20 6 0 11 -6 11
-14 0 -8 -8 -13 -17 -12 -12 0 -19 -7 -21 -21 -2 -15 2 -23 12 -23 8 0 17 -9
21 -19 3 -11 15 -23 26 -26 10 -4 19 -12 19 -20 0 -7 6 -20 13 -27 32 -34 69
-149 71 -220 1 -40 6 -61 17 -70 9 -7 23 -37 30 -66 9 -36 17 -51 26 -48 7 3
13 0 13 -7 1 -7 9 -30 20 -52 11 -22 19 -47 20 -56 0 -8 15 -41 34 -72 29 -47
33 -62 26 -85 -4 -15 -11 -46 -14 -69 -6 -41 -5 -43 21 -44 53 -2 58 -4 57
-21 -1 -10 11 -22 27 -29 16 -6 30 -14 30 -18 1 -3 2 -31 3 -63 1 -31 8 -63
15 -72 12 -14 12 -21 0 -44 -7 -15 -14 -30 -16 -34 -2 -3 4 -5 14 -4 11 2 22
23 33 65 10 34 20 65 24 68 25 26 87 -80 83 -142 l-2 -40 -45 0 -45 0 -37 -75
c-23 -45 -38 -90 -38 -112 0 -20 -5 -40 -10 -43 -6 -3 -10 -17 -10 -30 0 -13
-4 -26 -9 -30 -6 -3 -13 -26 -17 -50 -5 -37 -9 -43 -20 -34 -14 12 -18 7 -15
-22 1 -9 -5 -19 -14 -23 -9 -3 -13 -2 -10 3 3 5 1 12 -4 15 -5 4 -12 3 -15 -2
-6 -10 -20 -236 -16 -277 3 -39 6 -92 12 -240 6 -123 21 -185 62 -255 21 -35
43 -87 52 -125 3 -11 10 -29 14 -40 5 -11 11 -33 12 -50 2 -16 9 -30 16 -30
11 0 81 -128 82 -151 0 -5 12 -19 28 -31 15 -11 52 -53 83 -94 186 -247 329
-439 363 -488 59 -85 116 -151 131 -151 16 0 131 140 153 187 14 30 14 36 0
66 -8 17 -19 47 -22 65 -7 28 -26 46 -26 24 0 -5 -17 -14 -38 -20 -28 -9 -47
-8 -79 1 -38 11 -78 47 -82 72 -1 6 -4 18 -7 28 -7 23 14 87 38 114 22 24 68
39 77 25 10 -14 91 -2 91 14 0 8 5 14 10 14 6 0 10 8 10 18 0 10 7 28 16 41
13 17 14 28 6 44 -23 48 -32 93 -32 156 0 82 16 100 88 102 26 1 58 4 72 9
l25 7 -25 11 c-31 12 -100 86 -100 107 0 8 -6 15 -14 15 -22 0 -210 212 -226
255 -10 26 -88 144 -102 155 -3 3 -10 19 -14 35 -4 17 -10 32 -14 35 -13 9
-104 164 -125 213 -11 26 -26 47 -32 47 -7 0 -13 11 -13 24 0 14 -4 36 -10 50
-6 17 -6 26 0 26 6 0 10 7 10 15 0 8 -4 15 -10 15 -15 0 -12 25 7 65 19 39 33
46 33 14 0 -19 5 -21 40 -17 22 2 40 0 40 -4 0 -5 6 -8 14 -8 8 0 17 -8 19
-17 3 -13 5 -12 6 5 1 31 26 23 26 -9 0 -14 7 -24 15 -25 38 -2 52 -17 46 -45
-4 -23 -2 -29 12 -29 21 -1 46 -20 55 -42 3 -10 16 -18 27 -18 12 0 25 -10 32
-25 6 -14 17 -25 25 -25 7 0 13 -4 13 -9 0 -12 39 -21 46 -10 8 14 24 11 24
-5 0 -11 27 -25 50 -26 4 0 4 17 2 37 -4 32 -6 35 -14 18 -7 -16 -7 -15 -3 7
3 16 0 28 -8 31 -6 3 -2 4 10 4 14 -1 24 -9 28 -24 6 -26 33 -31 41 -8 4 8 1
21 -5 29 -16 20 -1 27 23 11 28 -20 110 -19 141 1 14 9 31 14 39 11 7 -3 33
-1 57 5 70 16 89 16 89 2 0 -18 50 -11 65 9 7 9 15 14 18 11 3 -3 19 0 35 8
24 13 32 13 47 2 10 -7 23 -10 29 -7 6 4 24 6 39 4 15 -1 33 2 40 7 7 5 37 12
67 15 30 3 49 3 42 0 -10 -4 -10 -8 -1 -19 17 -21 96 -18 108 3 11 21 12 20
40 -32 11 -22 21 -32 21 -23 0 10 12 24 28 32 33 17 72 61 72 81 0 9 9 15 24
15 14 0 28 5 31 10 3 6 1 10 -4 10 -6 0 -11 7 -11 16 0 8 4 13 9 10 14 -9 71
24 71 40 0 11 6 13 20 9 14 -4 20 -2 20 8 0 8 8 17 18 19 11 3 29 26 42 52 15
32 27 45 37 42 20 -8 46 21 39 41 -5 12 -4 13 7 5 8 -7 17 -9 20 -5 4 3 -1 12
-10 18 -15 11 -13 13 14 19 32 7 81 51 70 62 -13 13 14 44 38 44 14 0 25 5 25
10 0 6 5 10 11 10 7 0 8 -11 4 -30 -8 -35 4 -39 23 -9 10 15 20 19 38 15 19
-5 24 -3 24 14 0 11 -3 20 -7 20 -13 0 -14 82 -2 97 9 9 8 17 0 27 -10 11 -10
20 -1 36 6 12 9 28 6 36 -3 8 -3 28 1 44 7 38 42 41 69 5 29 -38 36 -30 13 15
-11 21 -18 44 -14 50 4 6 2 16 -3 23 -12 13 -4 61 15 92 l12 20 15 -20 c14
-19 15 -19 16 -1 0 10 -11 31 -25 48 -25 30 -33 72 -15 83 6 3 10 14 10 24 0
10 9 28 20 41 11 13 20 29 20 37 0 7 4 13 9 13 5 0 12 18 16 40 4 23 18 54 31
69 13 16 24 36 24 44 0 9 5 19 11 23 6 3 8 18 6 33 -3 14 -1 43 5 64 9 28 8
41 0 49 -14 14 -16 91 -3 116 6 9 12 29 16 44 3 15 24 46 47 68 41 39 42 41
20 46 -12 4 -22 14 -22 25 0 10 -5 21 -10 24 -6 4 -9 9 -6 13 5 10 18 147 20
212 0 30 4 60 9 67 4 6 5 18 2 25 -3 8 1 21 10 28 8 7 15 20 15 29 0 9 6 28
14 43 9 17 10 30 4 36 -6 6 -6 28 1 63 5 30 13 92 16 139 8 96 28 150 56 150
11 0 19 -4 19 -10 0 -5 9 -10 20 -10 29 0 26 42 -5 71 -31 30 -31 50 0 99 14
22 25 44 25 50 0 12 61 101 80 117 12 10 17 9 26 -2 6 -8 15 -15 20 -15 13 -1
55 -70 49 -81 -4 -5 1 -19 9 -31 9 -12 16 -35 16 -50 0 -46 16 -32 29 27 8 36
9 60 3 72 -6 10 -8 31 -5 46 3 15 0 34 -7 42 -15 17 -20 64 -9 71 5 3 9 -4 9
-16 0 -12 5 -18 10 -15 6 3 13 -1 16 -9 3 -9 12 -16 20 -16 7 0 17 -8 23 -17
9 -17 10 -17 17 0 12 32 -4 111 -26 126 -11 7 -20 19 -20 25 0 6 -9 17 -20 24
-11 7 -20 23 -20 36 0 17 -9 28 -35 40 -33 16 -48 42 -43 76 2 8 -1 62 -6 120
-4 58 -9 269 -11 470 -1 220 -6 381 -13 405 -40 148 -53 204 -73 315 -12 69
-27 132 -34 140 -7 8 -14 22 -17 30 -3 8 -28 44 -54 80 -27 37 -64 96 -83 133
-30 59 -82 120 -175 205 -13 12 -39 28 -58 34 -18 6 -56 34 -84 62 -66 66 -76
74 -165 120 -41 21 -81 44 -89 50 -8 7 -45 27 -82 45 -38 18 -68 37 -68 42 0
5 -418 8 -982 8 -817 0 -988 -3 -1015 -14z m2587 -445 c0 -5 -4 -10 -9 -10 -6
0 -13 5 -16 10 -3 6 1 10 9 10 9 0 16 -4 16 -10z m-2080 -592 c0 -14 -19 1
-31 25 -12 22 -12 22 10 3 11 -11 21 -23 21 -28z m-38 -53 c14 -14 38 -26 54
-27 16 -2 36 -10 46 -20 9 -9 35 -22 57 -28 48 -13 80 -43 88 -83 4 -17 15
-32 28 -37 13 -5 26 -14 30 -19 3 -6 14 -11 25 -11 10 0 20 -6 23 -14 3 -8 18
-20 33 -28 15 -7 35 -28 43 -45 11 -22 21 -31 31 -27 29 11 81 9 92 -3 6 -7
18 -13 28 -13 9 0 20 -3 24 -7 9 -9 29 -13 106 -18 l65 -4 -52 25 c-29 13 -53
27 -53 30 0 4 7 4 15 0 12 -4 13 -2 2 14 -14 23 -23 25 -30 8 -2 -7 -8 -10
-12 -6 -4 4 -3 14 4 22 9 11 8 17 -4 29 -20 21 -19 47 3 48 9 1 29 3 44 4 18
3 27 -2 30 -13 3 -9 18 -24 34 -32 27 -14 123 -76 134 -87 3 -2 -9 -2 -25 2
-23 5 -26 4 -15 -4 13 -9 12 -11 -5 -11 -15 0 -16 -3 -7 -12 9 -9 15 -9 24 0
15 15 29 16 25 1 -1 -6 4 -14 12 -17 10 -3 12 0 8 12 -5 12 0 16 21 15 15 0
22 -3 15 -5 -7 -3 -10 -11 -7 -18 4 -11 -6 -13 -44 -10 -28 2 -54 4 -58 5 -5
1 -20 1 -34 0 -24 -1 -24 -1 -4 -15 24 -17 146 -35 216 -32 47 2 51 0 60 -26
7 -20 19 -31 39 -35 20 -4 29 -12 29 -24 0 -11 5 -19 11 -19 6 0 8 -8 4 -19
-3 -10 1 -24 10 -31 8 -7 15 -9 15 -5 0 4 6 2 14 -4 10 -9 16 -8 26 4 20 24
67 19 85 -9 13 -20 14 -32 5 -65 -6 -23 -15 -41 -20 -41 -6 0 -10 -4 -10 -10
0 -5 9 -10 20 -10 16 0 20 -7 20 -32 0 -51 10 -59 47 -41 33 16 55 54 34 61
-13 4 -15 22 -2 22 5 0 13 -9 16 -20 3 -11 12 -20 18 -20 7 0 21 -19 33 -42
22 -44 48 -67 61 -55 4 5 2 16 -5 25 -7 9 -20 29 -30 44 -9 16 -22 28 -28 28
-7 0 -15 7 -18 16 -10 27 -7 84 5 84 8 0 7 5 -1 15 -7 9 -9 19 -5 23 4 4 10 1
12 -5 3 -7 14 -13 24 -13 11 0 17 -4 14 -10 -3 -5 -4 -10 0 -10 3 0 10 10 15
23 l9 22 7 -22 c3 -13 11 -23 16 -23 6 0 23 -11 38 -24 21 -17 26 -26 17 -35
-10 -10 12 -15 60 -14 7 1 10 -3 8 -7 -3 -5 15 -12 39 -15 43 -7 44 -8 53 -54
5 -30 13 -46 23 -46 8 0 16 -10 18 -22 2 -13 8 -23 13 -23 5 0 9 -7 9 -15 0
-8 3 -15 8 -15 4 0 7 -19 6 -43 -1 -69 -3 -79 -15 -71 -8 4 -9 -1 -3 -17 5
-13 8 -37 9 -52 0 -24 4 -28 25 -26 41 2 42 0 14 -26 -30 -28 -44 -32 -44 -12
0 7 -12 25 -26 40 -20 21 -32 27 -50 23 -12 -3 -26 -1 -30 5 -4 8 -9 7 -14 -2
-7 -10 -12 -10 -23 -1 -8 7 -29 14 -48 16 -19 2 -37 4 -41 5 -5 0 -8 9 -9 19
0 10 -3 12 -6 5 -8 -21 -42 -15 -71 12 -28 26 -47 31 -56 16 -3 -5 -23 -12
-43 -16 -21 -4 -43 -11 -49 -16 -8 -6 -27 -5 -52 4 -26 9 -40 10 -39 4 1 -6
-16 -14 -38 -19 -22 -5 -47 -12 -55 -15 -8 -3 -23 -5 -34 -4 -10 2 -30 -2 -45
-7 -57 -22 -67 -24 -106 -28 -51 -5 -82 -21 -89 -47 -4 -17 -7 -18 -20 -7 -12
9 -16 9 -16 1 0 -7 -4 -10 -9 -6 -6 3 -14 -3 -20 -12 -5 -10 -13 -15 -17 -11
-4 4 -19 -1 -33 -11 -14 -10 -43 -21 -63 -25 -21 -4 -38 -11 -38 -16 0 -12
-39 -26 -82 -29 -18 -1 -41 -82 -31 -108 7 -19 -17 -133 -28 -133 -5 0 -9 -5
-9 -11 0 -5 5 -7 10 -4 14 9 12 -29 -2 -43 -9 -9 -9 -12 1 -12 8 0 10 -7 6
-21 -5 -13 -2 -25 6 -29 10 -7 10 -11 0 -24 -9 -11 -10 -16 -2 -16 6 0 11 -9
11 -19 0 -10 7 -21 15 -25 8 -3 15 -12 15 -21 0 -21 -18 -19 -23 3 -4 16 -4
16 -12 -1 -4 -10 -2 -23 5 -32 10 -12 15 -10 34 12 l23 27 12 -22 c6 -12 20
-22 29 -22 10 0 28 -9 40 -20 26 -25 28 -25 54 0 20 18 20 20 4 54 -9 19 -21
36 -28 38 -8 3 -6 14 5 38 8 19 18 46 21 60 7 35 72 68 93 47 12 -12 10 -21
-12 -62 -36 -69 -26 -76 109 -79 84 -1 105 2 101 12 -3 10 1 11 16 7 11 -4 26
-1 34 5 10 9 19 9 35 0 12 -6 29 -8 38 -5 9 4 31 8 47 9 17 1 38 6 48 10 10 5
17 4 17 -2 0 -6 -8 -12 -17 -14 -16 -3 -15 -6 4 -16 23 -13 44 -7 86 27 9 8
17 10 17 4 0 -25 186 -55 195 -31 3 8 22 13 54 12 36 0 48 3 44 12 -3 8 6 14
23 16 38 4 55 35 30 54 -19 14 -19 14 2 14 12 0 22 6 22 13 0 7 9 18 21 25 17
11 25 10 51 -3 44 -22 54 -19 69 18 11 29 13 30 16 10 5 -26 23 -32 23 -8 0 8
5 15 11 15 5 0 8 4 4 10 -3 5 7 16 22 24 l28 15 -45 1 -45 1 40 14 c22 8 41
15 43 15 1 0 2 6 2 13 0 8 9 22 19 31 19 17 20 17 35 -13 9 -16 24 -34 33 -40
15 -8 16 -13 5 -31 -10 -16 -10 -21 0 -25 8 -3 13 -22 12 -52 -1 -33 3 -51 14
-59 12 -9 13 -16 6 -25 -18 -23 -14 -58 7 -69 17 -9 18 -18 13 -68 -8 -66 -8
-67 -26 -56 -17 11 -48 12 -48 2 0 -4 5 -8 10 -8 6 0 10 -11 10 -24 0 -14 -4
-28 -10 -31 -5 -3 -10 -15 -10 -26 0 -11 5 -17 10 -14 6 4 9 -9 9 -32 -2 -36
-2 -36 -7 -8 -5 27 -6 26 -11 -15 -4 -31 -11 -45 -21 -45 -10 0 -17 -14 -20
-46 -3 -25 -13 -54 -23 -63 -9 -10 -17 -25 -17 -34 0 -13 2 -13 14 3 13 18 14
18 20 -2 16 -50 14 -63 -9 -81 -17 -14 -22 -25 -18 -45 3 -15 0 -34 -7 -42 -9
-11 -9 -22 1 -50 12 -33 12 -38 -4 -47 -12 -6 -16 -16 -12 -29 5 -14 3 -17 -9
-13 -9 3 -13 10 -10 15 3 5 1 9 -4 9 -14 0 -24 -28 -29 -85 -2 -27 -8 -54 -14
-59 -5 -6 -9 -27 -9 -48 0 -36 -34 -118 -49 -118 -4 0 -8 -23 -8 -51 0 -30 -6
-55 -13 -59 -9 -6 -11 -29 -8 -84 5 -69 3 -76 -14 -76 -10 0 -18 -5 -18 -10 0
-6 8 -10 18 -8 18 3 18 3 6 -94 -5 -33 -11 -48 -21 -48 -13 0 -13 -3 -3 -15
10 -12 7 -21 -19 -50 -17 -20 -31 -45 -31 -55 0 -21 -15 -27 -25 -10 -4 6 -15
2 -27 -10 -12 -11 -28 -20 -35 -20 -17 0 -17 -22 2 -46 14 -18 14 -17 15 14 0
26 4 33 18 30 12 -2 17 -13 17 -41 1 -21 -4 -37 -11 -37 -6 0 -19 -20 -28 -45
-19 -48 -23 -51 -46 -34 -11 8 -12 12 -2 16 6 2 12 12 12 21 0 12 -4 11 -21
-6 -11 -12 -25 -19 -31 -16 -7 4 -8 2 -4 -4 5 -8 0 -12 -13 -12 -14 0 -21 -8
-23 -27 -2 -20 -9 -29 -26 -31 -21 -3 -22 -7 -17 -46 8 -51 -16 -109 -40 -100
-14 6 -21 -12 -16 -39 2 -14 -23 -34 -39 -30 -19 5 -34 -11 -47 -52 -6 -16
-16 -29 -22 -28 -15 4 -53 -35 -46 -47 4 -6 -9 -10 -28 -10 -22 0 -37 -6 -41
-15 -4 -12 -11 -13 -33 -4 -15 6 -31 16 -35 22 -9 14 -43 -3 -43 -21 0 -6 -3
-14 -7 -18 -5 -4 -8 2 -8 14 0 11 -4 24 -10 27 -5 3 -10 -1 -10 -9 0 -17 -9
-20 -35 -10 -13 5 -14 8 -3 15 8 6 -5 9 -35 9 -36 0 -49 -4 -55 -17 -5 -13
-20 -19 -49 -20 -28 -1 -54 -11 -76 -27 -41 -31 -47 -32 -47 -6 0 17 -5 19
-25 14 -14 -3 -31 -2 -38 3 -10 8 -30 9 -79 4 -5 -1 -8 -8 -8 -17 0 -11 -6
-15 -19 -11 -11 3 -22 -1 -25 -9 -4 -10 -13 -11 -37 -4 -26 8 -37 6 -51 -7
-22 -19 -36 -10 -18 12 7 9 11 18 8 20 -11 11 -103 12 -110 2 -4 -6 -29 -10
-58 -8 -40 2 -55 -1 -66 -16 -9 -10 -17 -14 -20 -8 -2 6 -21 9 -42 7 -20 -3
-34 -1 -30 3 12 13 -25 34 -49 28 -16 -4 -25 0 -29 13 -15 49 -27 61 -71 72
-33 9 -43 16 -39 28 3 8 0 24 -7 35 -10 17 -9 22 5 30 14 8 15 14 6 34 -14 30
-28 33 -28 5 0 -11 -4 -20 -10 -20 -5 0 -10 5 -10 10 0 6 -7 10 -15 10 -8 0
-15 6 -15 13 0 19 -75 87 -95 87 -14 0 -17 6 -12 35 5 30 1 40 -28 70 -19 19
-40 35 -45 35 -7 0 -9 8 -5 20 5 14 -2 25 -29 42 -20 13 -36 28 -36 34 0 6
-15 17 -32 25 -53 21 -66 40 -62 92 2 25 0 49 -6 52 -9 6 -14 -10 -13 -42 1
-7 -3 -10 -9 -7 -5 3 -6 15 -3 25 4 11 1 27 -7 36 -11 15 -11 16 5 10 13 -5
17 -1 16 16 0 12 -3 17 -5 10 -7 -15 -34 -5 -34 13 0 8 9 19 20 26 11 7 20 17
20 22 0 5 -3 6 -7 3 -10 -10 -53 34 -53 54 0 9 6 20 13 22 6 3 0 6 -15 6 -20
1 -28 6 -28 20 0 10 -7 31 -14 47 -8 15 -13 31 -11 35 3 4 -2 12 -10 19 -8 7
-15 19 -15 27 0 7 -7 16 -15 19 -8 4 -12 10 -9 15 3 5 -4 21 -15 35 -12 15
-21 36 -21 48 0 23 -20 61 -20 38 0 -7 -4 -10 -10 -7 -5 3 -10 15 -10 25 0 10
-5 20 -11 22 -6 2 -11 20 -12 41 -1 29 -5 37 -19 37 -20 0 -23 16 -8 54 8 23
7 26 -10 26 -11 0 -20 6 -21 13 0 9 -2 9 -5 0 -4 -8 -11 -7 -25 5 -20 17 -26
42 -9 42 6 0 10 11 10 25 0 15 -6 25 -14 25 -10 0 -17 16 -22 45 -3 25 -10 45
-15 45 -5 0 -9 9 -9 20 0 11 -4 20 -9 20 -5 0 -13 10 -17 22 -3 12 -14 29 -22
38 -14 13 -14 15 1 18 19 4 22 18 6 28 -6 3 -8 17 -5 30 4 14 2 24 -4 24 -15
0 -12 77 3 84 9 3 7 9 -6 19 -16 14 -21 71 -5 61 4 -3 8 6 8 21 0 14 -6 28
-14 31 -34 13 -26 104 8 104 8 0 17 7 20 15 4 12 17 15 48 13 40 -3 43 -6 48
-35 7 -45 34 -73 70 -73 20 0 30 -5 30 -15 0 -8 16 -19 40 -25 26 -7 40 -16
40 -27 0 -14 2 -14 15 3 8 11 15 14 15 7 0 -18 20 -16 20 2 0 8 7 15 15 15 8
0 15 -4 15 -10 0 -5 16 -10 35 -10 26 0 39 6 52 26 15 23 18 24 28 10 16 -22
24 -20 18 4 -3 11 0 20 6 20 6 0 11 -6 12 -12 1 -7 4 -3 7 10 4 13 12 22 17
20 6 -2 9 -6 7 -10 -1 -5 7 -8 19 -8 11 0 18 4 15 9 -3 5 1 14 9 21 8 7 15 21
15 32 0 11 9 22 20 25 11 3 20 12 20 19 0 17 30 19 30 2 0 -8 4 -7 10 3 7 13
21 15 62 11 29 -3 58 -11 63 -18 8 -11 23 -10 79 2 73 15 99 8 72 -18 -8 -9
-13 -17 -11 -20 2 -2 7 -24 10 -48 6 -50 25 -100 38 -100 5 0 5 10 2 23 -3 12
-3 17 2 11 4 -6 21 -14 36 -18 33 -8 54 -50 35 -73 -9 -11 -9 -16 1 -22 9 -6
8 -11 -3 -21 -9 -7 -14 -16 -11 -20 2 -4 -5 -16 -16 -26 -14 -13 -18 -25 -14
-45 3 -15 1 -30 -4 -34 -6 -3 -11 -24 -11 -45 0 -21 -4 -49 -9 -62 -24 -65
-22 -75 12 -95 61 -36 83 -12 97 107 5 36 14 88 20 115 32 139 51 233 51 260
0 31 -7 90 -10 90 -1 0 -3 24 -4 53 -1 28 1 52 5 52 4 0 6 12 4 28 -2 15 -7
54 -11 87 -4 33 -12 71 -18 85 -5 14 -11 36 -13 49 -5 38 -48 120 -66 126 -9
3 -20 19 -23 35 -5 21 -13 30 -26 30 -10 0 -19 5 -19 11 0 8 -5 8 -15 -1 -12
-10 -18 -10 -30 0 -8 6 -19 9 -25 5 -5 -3 -10 1 -10 9 0 11 -13 18 -40 22 -22
4 -40 11 -40 16 0 5 -6 8 -12 5 -7 -2 -21 0 -30 5 -10 5 -37 11 -60 14 -24 4
-51 11 -61 16 -12 6 -23 6 -30 -1 -8 -6 -35 -5 -81 5 -39 8 -72 11 -75 6 -9
-13 -51 -25 -51 -14 0 4 -21 9 -46 9 -26 1 -49 5 -53 10 -10 15 -54 23 -67 12
-9 -7 -11 -5 -10 8 0 11 -5 17 -14 15 -8 -2 -37 -5 -65 -5 -44 -2 -50 0 -50
18 0 19 50 75 67 75 5 0 8 9 8 21 0 11 -4 17 -10 14 -14 -8 -13 38 1 52 8 8 8
17 0 31 -16 30 -13 63 7 78 14 11 15 16 5 33 -18 29 -16 34 10 29 22 -4 22 -3
19 71 l-4 76 23 -25 c21 -22 22 -25 7 -28 -10 -2 -18 -7 -18 -12 0 -10 29 -40
39 -40 13 0 31 24 31 42 0 10 11 23 24 29 16 8 23 19 22 34 0 13 -4 21 -8 18
-16 -9 -7 31 10 43 16 12 16 15 -1 64 -10 29 -16 54 -13 58 3 3 6 0 6 -7 0 -7
5 -9 10 -6 6 4 8 11 5 16 -4 5 -1 9 4 9 6 0 11 7 11 15 0 8 5 15 10 15 6 0 10
9 10 21 0 18 -4 20 -27 15 -16 -3 -22 -3 -15 0 10 5 10 9 1 21 -11 12 -9 13
14 8 25 -7 26 -6 20 32 -8 53 -63 112 -63 67 0 -8 -4 -12 -10 -9 -5 3 -10 18
-9 33 0 15 3 21 6 15 9 -23 23 -14 23 15 0 15 6 37 14 48 8 11 19 36 24 55 6
25 13 33 28 31 10 -2 24 -4 31 -4 10 -1 36 -49 86 -155 13 -29 41 -31 34 -3
-4 17 -2 18 15 9 16 -9 19 -7 18 8 -4 32 0 49 8 38 4 -6 26 -25 50 -44 23 -18
45 -44 48 -57 3 -13 12 -24 20 -24 8 0 14 -7 14 -15 0 -8 -9 -15 -19 -15 -34
0 -33 -18 1 -26 48 -11 68 -12 68 -2 0 4 11 8 25 8 14 0 25 -4 25 -10 0 -5 8
-10 17 -10 9 0 25 -7 35 -17 21 -19 36 -10 19 11 -19 22 -6 33 31 29 33 -4 33
-4 8 9 -38 20 -39 48 -1 48 16 0 42 -5 58 -11 15 -6 37 -12 48 -14 11 -1 25
-3 30 -4 16 -3 -38 -30 -60 -31 -23 0 -10 -15 24 -25 16 -5 21 -4 17 4 -11 17
41 32 134 38 47 3 89 9 95 14 5 6 1 9 -10 10 -141 6 -206 19 -265 53 -58 33
-82 54 -68 59 10 3 10 9 0 27 -18 29 -10 35 42 31 24 -1 47 2 50 7 8 13 -22
37 -68 53 -21 8 -50 27 -63 44 -14 16 -33 33 -42 37 -14 6 -14 7 2 7 11 1 17
9 17 26 0 32 20 32 52 0z m124 -5 c15 -6 24 -13 22 -16 -8 -8 -58 7 -58 17 0
11 3 11 36 -1z m-516 -146 c0 -8 -4 -12 -10 -9 -5 3 -10 10 -10 16 0 5 5 9 10
9 6 0 10 -7 10 -16z m10 -34 c0 -5 -4 -10 -10 -10 -5 0 -10 5 -10 10 0 6 5 10
10 10 6 0 10 -4 10 -10z m228 -40 c10 0 19 -16 20 -35 0 -5 9 -13 19 -17 13
-5 10 -7 -12 -5 -19 1 -30 8 -30 17 0 8 -10 16 -22 18 -22 3 -23 8 -13 52 0 3
7 -3 14 -12 7 -10 18 -18 24 -18z m-506 -42 c-9 -9 -12 -4 -11 23 0 32 1 33
11 11 8 -17 8 -26 0 -34z m543 -38 c3 -5 2 -10 -4 -10 -5 0 -13 5 -16 10 -3 6
-2 10 4 10 5 0 13 -4 16 -10z m585 1 c0 -6 -4 -13 -10 -16 -5 -3 -10 1 -10 9
0 9 5 16 10 16 6 0 10 -4 10 -9z m-1075 -111 c-3 -5 -10 -10 -16 -10 -5 0 -9
5 -9 10 0 6 7 10 16 10 8 0 12 -4 9 -10z m2255 -71 c0 -4 -4 -11 -10 -14 -5
-3 -10 -1 -10 4 0 6 -3 10 -7 9 -10 -4 -13 5 -13 34 l0 21 20 -23 c11 -13 20
-27 20 -31z m-2280 -60 c0 -11 -4 -17 -10 -14 -5 3 -10 13 -10 21 0 8 5 14 10
14 6 0 10 -9 10 -21z m2344 -21 c8 -33 8 -38 -8 -38 -14 0 -26 21 -26 46 0 23
27 16 34 -8z m-2481 -338 c-3 -11 -9 -17 -14 -14 -14 8 -10 34 5 34 9 0 12 -7
9 -20z m2617 6 c0 -3 -4 -8 -10 -11 -5 -3 -10 -1 -10 4 0 6 5 11 10 11 6 0 10
-2 10 -4z m80 -141 c0 -8 5 -15 10 -15 16 0 12 -26 -7 -41 -15 -13 -16 -11
-10 12 5 19 3 29 -8 33 -19 7 -19 26 0 26 8 0 15 -7 15 -15z m0 -109 c0 -27
-19 -66 -32 -65 -10 0 -10 2 0 6 6 2 12 20 12 39 0 19 5 34 10 34 6 0 10 -6
10 -14z m-120 -42 c0 -8 -5 -12 -10 -9 -6 4 -8 11 -5 16 9 14 15 11 15 -7z
m162 -6 c8 -20 -2 -38 -19 -38 -10 0 -13 6 -9 16 3 9 6 20 6 25 0 13 17 11 22
-3z m-2747 -8 c3 -6 -4 -10 -17 -10 -18 0 -20 2 -8 10 19 12 18 12 25 0z
m2655 -20 c0 -5 -2 -10 -4 -10 -3 0 -8 5 -11 10 -3 6 -1 10 4 10 6 0 11 -4 11
-10z m120 0 c0 -5 -4 -10 -10 -10 -5 0 -10 5 -10 10 0 6 5 10 10 10 6 0 10 -4
10 -10z m-4 -50 c18 0 18 -10 -2 -38 -9 -13 -13 -30 -10 -39 6 -16 -9 -33 -29
-33 -5 0 -3 5 5 10 11 7 12 12 3 21 -17 17 -46 6 -54 -21 -6 -22 -7 -20 -8 11
-1 24 4 39 14 43 8 3 15 10 15 16 0 14 -27 13 -33 -2 -4 -10 -6 -10 -6 0 -1 7
6 15 14 18 8 4 15 12 15 20 0 19 10 18 26 -3 13 -17 14 -16 21 7 6 19 8 21 11
8 2 -10 10 -18 18 -18z m611 -17 c4 -10 -2 -23 -17 -35 -28 -23 -32 -20 -24
20 7 34 30 43 41 15z m-1310 -40 c4 -10 11 -21 17 -25 21 -14 -2 -18 -27 -5
-15 8 -25 16 -22 19 3 2 -9 3 -25 0 -32 -5 -42 13 -12 21 38 10 63 6 69 -10z
m-120 -15 c-3 -8 -6 -5 -6 6 -1 11 2 17 5 13 3 -3 4 -12 1 -19z m160 0 c-3 -8
-6 -5 -6 6 -1 11 2 17 5 13 3 -3 4 -12 1 -19z m730 -15 c-3 -10 -5 -4 -5 12 0
17 2 24 5 18 2 -7 2 -21 0 -30z m-817 -43 c12 -8 11 -10 -7 -10 -12 0 -25 5
-28 10 -8 13 15 13 35 0z m-1581 -60 c-6 -5 -19 -6 -27 -2 -13 4 -12 7 4 12
23 9 41 1 23 -10z m-89 -20 c0 -5 -4 -10 -10 -10 -5 0 -10 5 -10 10 0 6 5 10
10 10 6 0 10 -4 10 -10z m45 0 c3 -5 -1 -10 -9 -10 -9 0 -16 5 -16 10 0 6 4
10 9 10 6 0 13 -4 16 -10z m99 -45 c18 -14 17 -15 -22 -15 -40 0 -56 13 -29
23 20 9 31 7 51 -8z m1336 10 c0 -2 11 -34 25 -71 l25 -67 -32 7 c-18 4 -56
10 -85 13 -59 6 -74 25 -41 51 12 9 33 29 47 45 22 23 61 38 61 22z m175 -15
c3 -4 -2 -13 -10 -20 -13 -10 -19 -9 -35 5 -11 10 -17 21 -15 25 5 9 53 1 60
-10z m156 -71 c13 -24 5 -35 -33 -44 -31 -8 -34 0 -16 40 14 30 33 32 49 4z
m-1662 -33 c10 -12 8 -17 -7 -25 -21 -11 -42 2 -42 26 0 17 35 17 49 -1z m165
-5 c18 -20 43 -22 54 -4 5 7 12 5 22 -5 13 -14 12 -15 -4 -9 -16 6 -18 4 -13
-22 8 -38 -2 -44 -75 -51 -65 -6 -65 -7 -46 65 13 50 33 58 62 26z m-332 -69
c10 -15 23 -35 30 -44 17 -24 5 -32 -37 -24 -22 4 -41 16 -52 33 -16 25 -16
26 6 44 30 25 33 24 53 -9z m2133 -1782 c-3 -5 -12 -7 -20 -3 -21 7 -19 13 6
13 11 0 18 -4 14 -10z m-138 -82 c-3 -8 -6 -5 -6 6 -1 11 2 17 5 13 3 -3 4
-12 1 -19z m40 -18 c-1 -11 -5 -20 -9 -20 -4 0 -8 9 -8 20 0 11 4 20 9 20 6 0
9 -9 8 -20z m220 -312 c-3 -8 -6 -5 -6 6 -1 11 2 17 5 13 3 -3 4 -12 1 -19z
m-670 -514 c-3 -3 -12 -4 -19 -1 -8 3 -5 6 6 6 11 1 17 -2 13 -5z m-1757 -94
c0 -5 -4 -10 -10 -10 -5 0 -10 5 -10 10 0 6 5 10 10 10 6 0 10 -4 10 -10z
m-27 -54 c-10 -13 -22 -22 -26 -19 -9 6 21 43 35 43 5 0 1 -11 -9 -24z"/>
<path d="M3802 7808 c3 -7 13 -15 22 -16 12 -3 17 1 14 10 -3 7 -13 15 -22 16
-12 3 -17 -1 -14 -10z"/>
<path d="M3550 7510 c0 -6 7 -10 15 -10 8 0 15 2 15 4 0 2 -7 6 -15 10 -8 3
-15 1 -15 -4z"/>
<path d="M5861 7124 c0 -11 3 -14 6 -6 3 7 2 16 -1 19 -3 4 -6 -2 -5 -13z"/>
<path d="M4065 6320 c-3 -5 -1 -10 4 -10 6 0 11 5 11 10 0 6 -2 10 -4 10 -3 0
-8 -4 -11 -10z"/>
<path d="M3200 6310 c0 -5 5 -10 11 -10 5 0 7 5 4 10 -3 6 -8 10 -11 10 -2 0
-4 -4 -4 -10z"/>
<path d="M4065 6280 c3 -5 8 -10 11 -10 2 0 4 5 4 10 0 6 -5 10 -11 10 -5 0
-7 -4 -4 -10z"/>
<path d="M6121 6174 c0 -11 3 -14 6 -6 3 7 2 16 -1 19 -3 4 -6 -2 -5 -13z"/>
<path d="M4850 5885 c0 -8 4 -15 10 -15 5 0 7 7 4 15 -4 8 -8 15 -10 15 -2 0
-4 -7 -4 -15z"/>
<path d="M4280 5860 c0 -5 5 -10 10 -10 6 0 10 5 10 10 0 6 -4 10 -10 10 -5 0
-10 -4 -10 -10z"/>
<path d="M4135 5710 c3 -5 8 -10 11 -10 2 0 4 5 4 10 0 6 -5 10 -11 10 -5 0
-7 -4 -4 -10z"/>
<path d="M4095 5680 c-3 -5 -1 -10 4 -10 6 0 11 5 11 10 0 6 -2 10 -4 10 -3 0
-8 -4 -11 -10z"/>
<path d="M4041 5539 c-15 -43 -13 -70 4 -93 8 -11 15 -28 15 -38 0 -10 11 -23
23 -29 13 -6 32 -25 42 -42 10 -18 23 -35 29 -39 6 -4 6 -11 -2 -20 -8 -11 -8
-18 -1 -25 6 -6 11 -40 12 -75 0 -85 21 -122 70 -126 20 -2 37 -7 37 -11 0 -4
12 -13 26 -20 27 -12 27 -12 21 24 -3 19 -2 33 2 30 5 -2 11 8 14 23 3 15 1
29 -4 31 -6 1 -3 11 6 21 10 11 15 24 13 31 -5 14 26 49 42 49 6 0 10 -5 10
-12 0 -9 3 -9 11 -1 14 14 80 -1 95 -21 9 -13 17 -14 45 -4 43 14 89 48 89 64
0 11 65 41 81 37 3 -1 28 -3 55 -4 27 -2 52 -7 57 -13 5 -8 9 -7 15 1 4 6 16
11 27 10 13 -1 20 4 20 15 0 10 8 26 17 37 22 26 48 76 48 94 0 7 12 23 26 36
15 13 23 28 20 37 -3 9 -6 25 -6 37 -1 20 -2 20 -11 4 -6 -9 -14 -15 -18 -12
-13 7 -71 -15 -71 -27 0 -7 -4 -7 -12 0 -16 13 -161 -11 -166 -27 -2 -6 -9
-11 -16 -11 -13 0 -52 -41 -72 -75 -6 -10 -19 -23 -29 -29 -11 -6 -25 -18 -31
-26 -8 -9 -27 -14 -53 -13 -30 1 -41 -2 -41 -13 0 -23 -18 -16 -22 9 -2 17 -9
21 -28 19 -20 -2 -22 -1 -10 7 12 8 8 11 -18 11 -39 0 -143 79 -162 123 -10
22 -19 27 -46 27 -24 0 -34 -5 -34 -15 0 -12 -10 -15 -46 -13 -36 2 -44 6 -41
20 3 11 0 15 -9 11 -19 -7 -18 16 3 39 14 16 14 18 1 18 -9 0 -21 -14 -27 -31z"/>
<path d="M5210 5064 c0 -14 -3 -16 -9 -6 -11 18 -36 -12 -25 -30 6 -10 3 -9
-9 1 -15 12 -17 11 -17 -3 0 -9 -4 -16 -10 -16 -5 0 -10 5 -10 11 0 5 -4 8
-10 4 -5 -3 -6 -13 -3 -21 5 -14 3 -15 -15 -5 -14 8 -34 8 -61 2 -22 -5 -42
-6 -45 -4 -6 7 -82 5 -116 -2 -14 -3 -41 -8 -60 -11 -19 -3 -53 -14 -75 -23
-22 -10 -54 -24 -72 -32 -17 -7 -36 -24 -42 -36 -11 -25 -31 -29 -60 -13 -25
13 -148 33 -195 31 -22 -1 -42 3 -47 10 -5 9 -12 8 -29 -4 -25 -18 -72 -5
-105 29 -11 11 -28 23 -38 27 -9 3 -17 13 -17 22 0 8 -9 15 -20 15 -11 0 -20
5 -20 10 0 6 -4 10 -10 10 -5 0 -10 -10 -10 -23 0 -25 -35 -53 -46 -36 -3 6
-12 8 -20 5 -8 -3 -14 1 -14 9 0 11 -11 15 -37 15 -21 0 -51 7 -67 15 -15 8
-33 12 -40 8 -6 -4 -15 -8 -21 -8 -16 0 -18 -64 -4 -98 l13 -31 7 24 c7 24 7
24 9 -5 1 -16 2 -33 1 -38 -1 -4 13 -10 30 -14 24 -4 29 -10 26 -24 -3 -11 -2
-17 2 -15 4 3 15 -4 24 -14 12 -15 22 -18 39 -11 27 10 83 -17 83 -40 0 -8 4
-20 8 -26 5 -8 3 -13 -4 -13 -7 0 -3 -9 9 -20 12 -12 22 -32 22 -46 0 -17 8
-28 27 -37 15 -6 50 -34 78 -62 61 -60 123 -80 184 -60 20 7 55 11 79 9 23 -2
42 1 42 6 0 16 94 17 106 1 10 -12 17 -12 55 7 25 12 45 18 47 12 7 -19 50
-11 57 10 5 15 12 19 25 15 10 -3 22 0 27 8 4 7 43 19 87 25 88 14 86 13 90
39 2 10 7 18 12 18 5 1 19 6 30 13 12 6 24 9 27 5 4 -3 12 6 18 21 10 20 10
29 1 38 -9 9 -12 8 -12 -5 0 -10 -8 -17 -20 -17 -11 0 -20 5 -20 10 0 6 -4 10
-10 10 -5 0 -10 -7 -10 -15 0 -16 -71 -40 -108 -36 -13 1 -28 -2 -35 -7 -18
-15 -296 -9 -332 7 -16 8 -43 19 -59 26 -17 8 -24 15 -17 20 9 5 9 10 0 21 -9
11 -7 15 7 20 11 3 28 9 39 13 11 5 24 9 29 9 5 0 13 6 17 14 6 9 9 4 9 -16 0
-26 2 -28 35 -24 19 2 35 0 35 -5 0 -5 17 -7 37 -4 38 7 58 28 58 62 0 14 10
21 40 27 45 10 85 3 85 -14 0 -6 -10 -22 -21 -34 -12 -13 -19 -30 -16 -38 9
-22 64 -31 82 -12 8 8 25 18 38 22 12 4 39 18 60 31 21 13 37 18 37 12 0 -7
11 0 24 14 13 14 36 29 50 33 14 3 26 13 26 21 0 10 7 14 20 10 11 -3 17 -1
14 4 -3 6 7 7 25 4 24 -4 31 -2 31 11 0 27 31 43 83 44 34 0 49 4 54 16 3 9 0
20 -7 24 -8 5 -11 20 -7 42 l5 34 -59 13 c-33 6 -66 14 -74 18 -10 3 -15 -1
-15 -13z"/>
<path d="M3975 5050 c-3 -5 -2 -10 4 -10 5 0 13 5 16 10 3 6 2 10 -4 10 -5 0
-13 -4 -16 -10z"/>
<path d="M5840 5040 c0 -5 9 -10 20 -10 11 0 20 5 20 10 0 6 -9 10 -20 10 -11
0 -20 -4 -20 -10z"/>
<path d="M3628 4953 c7 -3 16 -2 19 1 4 3 -2 6 -13 5 -11 0 -14 -3 -6 -6z"/>
<path d="M6060 6870 c-12 -7 -12 -12 -3 -21 15 -15 26 -7 21 15 -2 11 -7 13
-18 6z"/>
<path d="M6800 6649 c0 -5 5 -7 10 -4 6 3 10 8 10 11 0 2 -4 4 -10 4 -5 0 -10
-5 -10 -11z"/>
<path d="M6663 5960 c-26 -32 -28 -40 -10 -40 18 0 57 38 57 55 0 24 -23 16
-47 -15z"/>
<path d="M2791 5964 c0 -11 3 -14 6 -6 3 7 2 16 -1 19 -3 4 -6 -2 -5 -13z"/>
<path d="M2802 5890 c0 -14 2 -19 5 -12 2 6 2 18 0 25 -3 6 -5 1 -5 -13z"/>
<path d="M6610 5820 c0 -5 5 -10 10 -10 6 0 10 5 10 10 0 6 -4 10 -10 10 -5 0
-10 -4 -10 -10z"/>
<path d="M2850 5752 c0 -6 7 -27 16 -46 18 -37 52 -50 88 -36 19 8 18 9 -6 9
-18 1 -28 6 -28 16 0 8 -9 15 -20 15 -11 0 -20 6 -20 14 0 7 -7 19 -15 26 -10
8 -15 9 -15 2z"/>
<path d="M2940 5649 c0 -6 -9 -8 -21 -4 -19 6 -20 5 -9 -15 6 -11 20 -24 31
-29 11 -4 21 -11 22 -16 2 -14 30 -45 39 -45 5 0 8 9 8 20 0 11 -5 20 -11 20
-5 0 -8 4 -5 9 4 5 -6 19 -21 30 -20 15 -22 19 -8 14 18 -6 18 -5 6 10 -15 19
-31 22 -31 6z"/>
<path d="M3055 5431 c-3 -5 -1 -12 4 -15 5 -3 11 1 15 9 6 16 -9 21 -19 6z"/>
<path d="M5970 4168 c0 -9 -6 -19 -12 -21 -10 -4 -10 -6 0 -6 6 -1 12 -10 12
-22 0 -11 -4 -18 -9 -14 -9 5 -6 -233 3 -242 6 -7 -6 -178 -13 -183 -4 -3 -20
-40 -35 -83 -50 -137 -113 -247 -142 -247 -12 0 -161 -133 -176 -157 -5 -6
-32 -28 -60 -48 -103 -73 -178 -139 -178 -155 0 -21 -36 -60 -57 -60 -8 0 -33
-16 -54 -35 -22 -19 -49 -35 -62 -35 -12 0 -34 -11 -48 -24 -14 -13 -39 -31
-55 -40 -16 -10 -46 -27 -66 -40 l-38 -22 45 -38 c25 -20 45 -43 45 -50 0 -8
7 -19 15 -26 26 -22 17 -56 -25 -94 -22 -20 -47 -36 -54 -36 -8 0 -36 -27 -61
-60 -25 -33 -50 -60 -54 -60 -5 0 -11 -18 -15 -41 -4 -22 -14 -52 -23 -65 -14
-22 -15 -35 -4 -107 15 -101 35 -175 67 -246 l25 -54 31 29 c18 16 73 68 122
115 87 82 174 160 227 204 104 86 161 126 186 131 21 4 35 17 49 42 10 21 24
40 31 45 7 4 10 14 7 22 -4 10 0 15 12 15 16 0 17 2 4 10 -12 8 -9 10 13 10
29 0 37 17 10 22 -14 2 -11 10 16 41 18 20 26 34 17 31 -24 -9 -21 33 4 46 11
6 20 20 20 31 0 14 5 19 14 16 8 -3 22 1 33 9 17 13 17 15 1 27 -16 13 -16 16
2 50 11 20 20 44 20 53 0 10 6 14 14 11 9 -4 13 -1 10 6 -5 15 34 80 45 73 4
-3 6 6 3 19 -3 17 1 27 12 31 9 3 13 10 10 16 -3 5 3 12 15 15 23 6 26 14 10
30 -7 7 -6 15 5 25 8 9 20 36 27 62 6 25 15 46 20 46 5 0 14 11 19 25 20 54
53 121 72 148 11 16 18 31 14 34 -3 3 8 25 24 49 17 23 30 50 30 58 0 9 8 35
18 59 26 58 41 103 59 167 8 30 21 74 29 98 13 41 13 45 -11 80 -14 20 -25 42
-25 48 0 23 -27 36 -49 24 -31 -16 -57 2 -88 63 -18 36 -27 70 -29 110 -1 33
-7 64 -13 70 -8 8 -11 7 -11 -5z m-819 -1866 l29 -24 9 24 c8 20 10 18 16 -23
5 -34 3 -55 -9 -77 -31 -60 -78 -86 -69 -38 4 19 0 25 -21 30 -25 6 -66 42
-66 58 0 5 13 2 29 -6 45 -24 69 16 37 60 -11 14 -12 22 -3 33 10 12 12 12 15
0 2 -8 17 -24 33 -37z m-137 16 c-4 -7 -8 -22 -9 -33 -3 -55 -6 -65 -16 -65
-15 0 -6 85 11 105 15 18 26 13 14 -7z"/>
<path d="M3427 3833 c-3 -16 -3 -30 -1 -33 7 -7 23 23 18 32 -3 4 0 8 5 8 6 0
11 5 11 10 0 23 -28 8 -33 -17z"/>
<path d="M2962 3798 c-7 -7 -12 -15 -12 -20 0 -12 28 2 34 18 7 17 -6 18 -22
2z"/>
<path d="M2902 3754 c-13 -6 -20 -14 -15 -17 8 -5 50 20 42 26 -2 2 -15 -2
-27 -9z"/>
<path d="M2805 3680 c-3 -5 -2 -10 4 -10 5 0 13 5 16 10 3 6 2 10 -4 10 -5 0
-13 -4 -16 -10z"/>
<path d="M5295 3680 c-3 -5 1 -10 9 -10 9 0 16 5 16 10 0 6 -4 10 -9 10 -6 0
-13 -4 -16 -10z"/>
<path d="M6745 3650 c10 -11 20 -20 22 -20 2 0 -2 9 -9 20 -7 11 -17 20 -22
20 -5 0 -1 -9 9 -20z"/>
<path d="M2760 3653 c-8 -3 -26 -13 -40 -23 -14 -9 -63 -24 -110 -34 -47 -10
-93 -22 -102 -27 -9 -4 -44 -18 -78 -29 -34 -12 -94 -36 -134 -55 -39 -18 -89
-39 -111 -46 -22 -6 -49 -18 -60 -25 -11 -7 -46 -18 -79 -24 -32 -7 -103 -27
-157 -46 -55 -19 -108 -34 -118 -34 -10 0 -56 -14 -102 -31 -46 -17 -93 -33
-104 -36 -11 -3 -34 -11 -52 -19 -17 -8 -41 -14 -52 -14 -19 0 -38 -7 -81 -32
-8 -4 -26 -13 -40 -19 -14 -6 -34 -16 -45 -22 -11 -6 -53 -28 -93 -49 -41 -21
-79 -43 -85 -49 -23 -19 -153 -113 -216 -156 -148 -102 -217 -169 -262 -255
-18 -36 -40 -63 -58 -73 -16 -8 -39 -29 -51 -46 -25 -33 -75 -134 -96 -189 -7
-19 -22 -60 -34 -90 -12 -30 -52 -145 -90 -255 -38 -110 -87 -249 -110 -310
-23 -60 -55 -160 -70 -222 -15 -61 -30 -115 -33 -120 -3 -4 -8 -25 -11 -46 -3
-21 -13 -71 -20 -110 -41 -205 -47 -298 -51 -754 -2 -205 -6 -382 -10 -393 -6
-20 -4 -20 1768 -20 l1775 0 -9 38 c-4 20 -17 66 -29 102 -11 36 -36 128 -56
205 -19 77 -46 181 -59 230 -14 50 -32 119 -40 155 -8 36 -26 108 -39 160 -49
190 -77 306 -81 330 -5 29 -24 94 -54 195 -29 94 -67 241 -76 288 -3 21 -17
73 -31 115 -13 42 -35 111 -48 152 -43 134 -99 375 -161 695 -25 127 -49 250
-55 275 -6 25 -19 92 -29 150 -32 177 -51 273 -66 325 -25 90 -27 128 -10 168
8 20 21 37 29 37 7 0 21 9 31 20 19 21 19 22 -5 13z"/>
<path d="M6797 3496 c-8 -12 -20 -38 -25 -57 -6 -19 -15 -47 -21 -64 -6 -16
-22 -64 -35 -105 -33 -99 -79 -215 -122 -304 -8 -16 -14 -33 -14 -39 0 -5 -7
-25 -16 -45 -9 -21 -20 -46 -24 -57 -14 -37 -82 -200 -94 -225 -6 -14 -23 -47
-39 -73 -15 -27 -25 -52 -22 -57 3 -5 1 -12 -5 -15 -6 -4 -40 -64 -75 -133
-35 -70 -77 -152 -94 -182 -17 -30 -33 -62 -37 -70 -9 -23 -123 -252 -137
-275 -7 -11 -27 -43 -44 -72 -18 -30 -33 -57 -33 -62 0 -5 -7 -14 -15 -21 -8
-7 -15 -21 -15 -32 0 -10 -5 -16 -10 -13 -6 4 -10 3 -9 -2 6 -35 -3 -53 -26
-53 -14 0 -25 -5 -25 -11 0 -5 5 -7 10 -4 6 3 10 0 10 -8 0 -8 -7 -17 -15 -21
-8 -3 -15 -15 -15 -26 0 -11 -6 -23 -14 -26 -8 -3 -20 -20 -26 -37 -22 -58
-52 -116 -73 -138 -11 -12 -21 -34 -22 -50 -2 -15 -10 -35 -19 -44 -9 -9 -16
-23 -16 -31 0 -8 -4 -14 -10 -14 -5 0 -10 -10 -10 -22 0 -11 -11 -36 -25 -54
-14 -18 -25 -38 -25 -44 0 -7 -8 -24 -19 -38 -10 -15 -21 -45 -25 -66 -6 -29
-10 -36 -17 -25 -7 11 -9 9 -9 -7 0 -12 -7 -27 -15 -34 -8 -6 -17 -22 -21 -33
-3 -12 -20 -51 -36 -87 -16 -36 -33 -74 -38 -85 -17 -37 -171 -349 -230 -465
-32 -63 -63 -127 -69 -142 l-10 -28 2075 0 2074 0 0 519 c0 405 -3 536 -14
597 -8 44 -17 93 -20 109 -5 28 -36 202 -55 310 -10 53 -36 181 -69 335 -12
52 -30 120 -41 150 -65 181 -79 217 -91 240 -18 35 -183 202 -259 263 -88 71
-180 135 -337 234 -10 7 -89 48 -174 91 -85 44 -195 101 -245 127 -175 94
-273 142 -321 160 -27 10 -62 23 -79 30 -16 8 -52 22 -80 33 -27 11 -98 43
-157 71 -59 28 -110 51 -113 51 -6 0 -208 100 -318 158 -82 43 -84 43 -100 18z"/>
<path d="M4677 2444 c-8 -8 1 -24 14 -24 5 0 9 7 9 15 0 15 -12 20 -23 9z"/>
<path d="M4190 2349 c0 -5 5 -7 10 -4 6 3 10 8 10 11 0 2 -4 4 -10 4 -5 0 -10
-5 -10 -11z"/>
<path d="M4240 2309 c-17 -5 -19 -7 -7 -8 11 -1 20 -12 24 -31 3 -16 9 -30 14
-30 4 0 15 -7 23 -16 9 -8 21 -12 27 -8 9 5 7 11 -5 20 -11 8 -16 22 -14 40 4
31 -22 45 -62 33z"/>
<path d="M4330 2271 c0 -17 5 -31 10 -31 6 0 10 11 10 24 0 14 -4 28 -10 31
-6 4 -10 -7 -10 -24z"/>
<path d="M3845 740 c3 -5 8 -10 11 -10 2 0 4 5 4 10 0 6 -5 10 -11 10 -5 0 -7
-4 -4 -10z"/>
<path d="M3861 700 c0 -8 4 -24 9 -35 l9 -20 0 20 c0 11 -4 27 -9 35 -9 13
-10 13 -9 0z"/>
<path d="M4337 492 c-8 -35 43 -87 74 -77 15 5 19 3 17 -8 -4 -19 308 -321
322 -312 27 17 8 53 -57 111 -37 32 -104 93 -149 134 -45 41 -109 98 -142 127
l-60 52 -5 -27z"/>
<path d="M4305 337 c-8 -30 2 -67 17 -67 6 0 20 -8 31 -17 15 -13 21 -15 24
-5 3 6 11 12 19 12 13 0 19 -18 15 -48 -1 -7 28 -42 65 -78 37 -35 65 -67 61
-70 -7 -7 -58 26 -100 65 -23 21 -29 23 -37 11 -11 -18 -20 -9 -24 24 -3 26
-51 86 -69 86 -5 0 -7 -14 -3 -32 7 -36 102 -139 173 -189 39 -27 48 -29 132
-29 50 0 91 3 90 8 0 4 -24 27 -52 51 -29 24 -84 74 -122 110 -39 36 -101 92
-137 124 -37 32 -69 61 -72 64 -3 3 -8 -6 -11 -20z"/>
<path d="M4290 35 c0 -32 2 -35 30 -35 17 0 30 3 30 8 -1 9 -47 62 -55 62 -3
0 -5 -16 -5 -35z"/>
</g>
</svg>
